<svg width="268" height="446" viewBox="0 0 268 446" fill="none" xmlns="http://www.w3.org/2000/svg">
<path d="M180.927 89.4876C178.952 38.7481 137.168 -1.30229 87.5989 0.0324138C-22.72 2.75105 -25.414 171.005 81.0956 183.091L78.8405 198L111.736 197.114L108.326 182.358C151.172 174.482 182.718 135.489 180.927 89.4876Z" fill="#FF6584"/>
<path d="M31 116.671L19.1372 117C14.4868 98.0335 13.7503 78.5143 16.9608 59.3295L28.8237 59C24.4422 79.0824 25.1676 98.3059 31 116.671Z" fill="white"/>
<path d="M113.175 181.809L75.7092 182.814L75.9787 189.709L113.445 188.705L113.175 181.809Z" fill="#3F3D56"/>
<path d="M3.7905 446L0 444.532L93.2094 183L97 184.469L3.7905 446Z" fill="#3F3D56"/>
<path d="M258.458 132.143C281.177 84.873 261.937 34.1811 215.485 18.9192C112.223 -15.2789 28.343 138.394 120.923 184.926L111.627 197.872L142.454 208L146.442 193.31C189.846 200.326 237.86 174.998 258.458 132.143Z" fill="#6C63FF"/>
<path d="M107.378 108L96 104.199C100.705 85.0125 109.377 66.6682 121.622 50L133 53.8008C119.217 70.8955 110.676 88.9619 107.378 108Z" fill="white"/>
<path d="M116.076 183.124L113 189.536L147.836 201.001L150.912 194.589L116.076 183.124Z" fill="#3F3D56"/>
<path d="M3.61611 438L0 436.297L129.384 192L133 193.702L3.61611 438Z" fill="#3F3D56"/>
</svg>
