<svg width="422" height="382" viewBox="0 0 422 382" fill="none" xmlns="http://www.w3.org/2000/svg">
<g clip-path="url(#clip0)">
<path d="M175.704 333.879H226.931V377.262C226.931 377.345 226.915 377.427 226.884 377.504C226.853 377.581 226.807 377.65 226.749 377.709C226.691 377.768 226.622 377.815 226.547 377.846C226.471 377.878 226.39 377.895 226.308 377.895H176.327C176.162 377.895 176.003 377.828 175.887 377.709C175.77 377.591 175.704 377.43 175.704 377.262V333.879Z" fill="#B8C1EC"/>
<path d="M226.966 343.821H175.704V353.394H226.966V343.821Z" fill="#B8C1EC"/>
<path d="M226.975 381.437C225.941 381.437 224.95 381.021 224.22 380.279C223.489 379.537 223.079 378.531 223.079 377.481V337.993H179.6V377.481C179.6 378.531 179.189 379.537 178.459 380.279C177.728 381.021 176.737 381.437 175.704 381.437C174.671 381.437 173.68 381.021 172.949 380.279C172.219 379.537 171.808 378.531 171.808 377.481V330.081H230.871V377.481C230.868 378.53 230.457 379.535 229.727 380.276C228.997 381.018 228.007 381.435 226.975 381.437Z" fill="#25252D"/>
<path d="M241.658 374.088H161.298V382H241.658V374.088Z" fill="#25252D"/>
<path d="M150.519 374.088H140.995V382H150.519V374.088Z" fill="#25252D"/>
<path d="M263.441 374.088H252.454V382H263.441V374.088Z" fill="#25252D"/>
<path d="M381.263 40.4382H21.4159C7.22921 40.4382 -4.27136 52.1158 -4.27136 66.5208V313.835C-4.27136 328.24 7.22921 339.918 21.4159 339.918H381.263C395.449 339.918 406.95 328.24 406.95 313.835V66.5208C406.95 52.1158 395.449 40.4382 381.263 40.4382Z" fill="#B8C1EC"/>
<path d="M385.228 337.755C384.57 337.817 383.903 337.843 383.237 337.843H23.3985C20.0245 337.844 16.6833 337.171 13.5658 335.86C10.4483 334.55 7.6155 332.629 5.2293 330.207C2.8431 327.785 0.950212 324.909 -0.341235 321.744C-1.63268 318.579 -2.29739 315.187 -2.29739 311.761L-5.09381 60.2529C-5.09381 45.2995 9.91856 41.2557 10.0051 40.4382C32.7661 49.8532 27.8053 73.9139 40.3589 90.2914C56.8084 111.653 42.7744 156.267 38.1339 179.449C31.0779 214.727 19.4074 252.237 21.2861 288.588C23.4764 330.538 77.353 338.591 110.053 340.982C153.237 344.129 196.733 342.3 239.684 338.221C286.712 333.764 339.758 342.573 385.228 337.755Z" fill="#B8C1EC"/>
<path d="M378.077 65.967H24.6019V283.621H378.077V65.967Z" fill="#373635"/>
<path opacity="0.5" d="M378.077 65.967H24.6019V81.3511H65.492V283.621H80.6429V81.3511H378.077V65.967Z" fill="#21201F"/>
<path d="M385.834 343.874H16.8447C10.2132 343.867 3.85529 341.189 -0.83387 336.428C-5.52303 331.666 -8.16042 325.21 -8.1673 318.477V61.8792C-8.16042 55.1457 -5.52303 48.6899 -0.83387 43.9286C3.85529 39.1673 10.2132 36.4893 16.8447 36.4823H385.834C392.465 36.4893 398.823 39.1673 403.512 43.9286C408.202 48.6899 410.839 55.1457 410.846 61.8792V318.477C410.839 325.21 408.202 331.666 403.512 336.428C398.823 341.189 392.465 343.867 385.834 343.874ZM16.8447 44.3941C12.279 44.3988 7.90169 46.2424 4.6733 49.5205C1.4449 52.7986 -0.370825 57.2433 -0.375409 61.8792V318.477C-0.36854 323.112 1.44792 327.555 4.67582 330.833C7.90372 334.111 12.2797 335.955 16.8447 335.962H385.834C390.399 335.955 394.775 334.111 398.003 330.833C401.231 327.555 403.047 323.112 403.054 318.477V61.8792C403.049 57.2433 401.234 52.7986 398.005 49.5205C394.777 46.2424 390.399 44.3988 385.834 44.3941H16.8447Z" fill="#25252D"/>
<path d="M201.339 151.722C200.765 151.722 200.215 151.491 199.809 151.079C199.403 150.666 199.175 150.107 199.175 149.524V96.3659C199.175 95.783 199.403 95.224 199.809 94.8118C200.215 94.3997 200.765 94.1682 201.339 94.1682C201.913 94.1682 202.464 94.3997 202.87 94.8118C203.276 95.224 203.504 95.783 203.504 96.3659V149.524C203.504 150.107 203.276 150.666 202.87 151.079C202.464 151.491 201.913 151.722 201.339 151.722Z" fill="white"/>
<path d="M201.339 177.524C201.055 177.525 200.773 177.469 200.51 177.359C200.247 177.249 200.007 177.087 199.806 176.882C199.605 176.678 199.446 176.435 199.337 176.168C199.229 175.901 199.174 175.615 199.175 175.326V164.161C199.175 163.579 199.403 163.02 199.809 162.607C200.215 162.195 200.765 161.964 201.339 161.964C201.913 161.964 202.464 162.195 202.87 162.607C203.276 163.02 203.504 163.579 203.504 164.161V175.326C203.505 175.615 203.45 175.901 203.341 176.168C203.233 176.435 203.074 176.678 202.872 176.882C202.671 177.087 202.432 177.249 202.169 177.359C201.906 177.469 201.624 177.525 201.339 177.524Z" fill="white"/>
<path d="M201.339 193.883C200.765 193.883 200.215 193.652 199.809 193.24C199.403 192.828 199.175 192.269 199.175 191.686V188.424C199.175 187.841 199.403 187.282 199.809 186.87C200.215 186.458 200.765 186.227 201.339 186.227C201.913 186.227 202.464 186.458 202.87 186.87C203.276 187.282 203.504 187.841 203.504 188.424V191.686C203.504 192.269 203.276 192.828 202.87 193.24C202.464 193.652 201.913 193.883 201.339 193.883Z" fill="white"/>
<path d="M406.884 120.558H400.823V173.717H406.884V120.558Z" fill="white"/>
<path d="M406.737 181.673H400.676V197.602H406.737V181.673Z" fill="white"/>
<path d="M201.417 140.47C200.843 140.47 200.293 140.238 199.887 139.826C199.481 139.414 199.253 138.855 199.253 138.272V85.1136C199.253 84.5307 199.481 83.9717 199.887 83.5595C200.293 83.1474 200.843 82.9158 201.417 82.9158C201.991 82.9158 202.542 83.1474 202.948 83.5595C203.354 83.9717 203.582 84.5307 203.582 85.1136V138.272C203.582 138.855 203.354 139.414 202.948 139.826C202.542 140.238 201.991 140.47 201.417 140.47Z" fill="white"/>
<path d="M201.261 158.236C200.687 158.236 200.137 158.005 199.731 157.593C199.325 157.18 199.097 156.621 199.097 156.039V148.9C199.097 148.317 199.325 147.758 199.731 147.346C200.137 146.934 200.687 146.703 201.261 146.703C201.835 146.703 202.386 146.934 202.792 147.346C203.198 147.758 203.426 148.317 203.426 148.9V156.039C203.426 156.621 203.198 157.18 202.792 157.593C202.386 158.005 201.835 158.236 201.261 158.236Z" fill="white"/>
<path d="M305.188 282.425H98.0881C93.8922 282.425 89.8681 280.734 86.9003 277.722C83.9326 274.71 82.2642 270.625 82.2619 266.364L81.6732 21.5465C81.672 19.4366 82.0803 17.3472 82.8747 15.3976C83.6691 13.4479 84.834 11.6763 86.3029 10.184C87.7718 8.69168 89.5159 7.50785 91.4356 6.70017C93.3552 5.89248 95.4128 5.47675 97.4907 5.47676H304.59C308.783 5.47208 312.807 7.15705 315.777 10.1617C318.748 13.1664 320.423 17.2452 320.434 21.5026L321.005 266.364C321.005 270.624 319.339 274.709 316.373 277.721C313.406 280.733 309.383 282.425 305.188 282.425Z" fill="white"/>
<path d="M321.923 280.14H83.1796L82.513 269.178H321.248L321.923 280.14Z" fill="#E1E4FE"/>
<path d="M320.018 286.381C318.987 286.381 317.997 285.966 317.267 285.226C316.536 284.486 316.125 283.482 316.122 282.434L315.482 17.8807C315.475 15.6392 314.594 13.4918 313.031 11.9085C311.469 10.3252 309.352 9.43494 307.144 9.43263H92.8762C91.7791 9.43262 90.6929 9.65246 89.6796 10.0795C88.6664 10.5066 87.7462 11.1326 86.9716 11.9215C86.1971 12.7104 85.5835 13.6467 85.166 14.6769C84.7486 15.707 84.5355 16.8107 84.5389 17.9246L85.1795 282.417C85.1796 283.465 84.7706 284.471 84.042 285.214C83.3135 285.957 82.3248 286.377 81.2923 286.381C80.2605 286.381 79.2709 285.966 78.5405 285.226C77.8101 284.486 77.3986 283.482 77.3963 282.434L76.7557 17.9422C76.7511 15.7889 77.1646 13.6557 77.9725 11.6647C78.7804 9.67376 79.9668 7.86398 81.4639 6.33888C82.9611 4.81378 84.7396 3.60326 86.6978 2.77655C88.656 1.94983 90.7555 1.52312 92.8762 1.52081H307.144C311.414 1.52775 315.507 3.25064 318.53 6.3129C321.552 9.37517 323.258 13.5278 323.274 17.8631L323.897 282.417C323.899 282.936 323.801 283.45 323.607 283.93C323.413 284.411 323.128 284.848 322.768 285.216C322.407 285.584 321.979 285.877 321.507 286.077C321.036 286.277 320.53 286.38 320.018 286.381Z" fill="#25252D"/>
<path d="M381.973 287.568H20.706V62.011H79.8984C80.9316 62.011 81.9226 62.4278 82.6532 63.1697C83.3839 63.9116 83.7943 64.9178 83.7943 65.967C83.7943 67.0161 83.3839 68.0223 82.6532 68.7642C81.9226 69.5061 80.9316 69.9229 79.8984 69.9229H28.4979V279.656H374.181V69.9229H320.503C319.47 69.9229 318.479 69.5061 317.748 68.7642C317.018 68.0223 316.607 67.0161 316.607 65.967C316.607 64.9178 317.018 63.9116 317.748 63.1697C318.479 62.4278 319.47 62.011 320.503 62.011H381.973V287.568Z" fill="#25252D"/>
<path d="M202.214 316.789C206.589 316.789 210.135 313.188 210.135 308.745C210.135 304.303 206.589 300.702 202.214 300.702C197.839 300.702 194.292 304.303 194.292 308.745C194.292 313.188 197.839 316.789 202.214 316.789Z" fill="white"/>
<path d="M202.214 319.426C200.133 319.426 198.099 318.8 196.37 317.626C194.64 316.453 193.292 314.785 192.495 312.833C191.699 310.881 191.491 308.734 191.897 306.662C192.303 304.59 193.304 302.687 194.776 301.193C196.247 299.699 198.121 298.682 200.162 298.27C202.202 297.858 204.317 298.069 206.239 298.877C208.161 299.686 209.804 301.055 210.96 302.811C212.116 304.568 212.733 306.633 212.733 308.745C212.73 311.577 211.621 314.293 209.649 316.295C207.677 318.298 205.003 319.424 202.214 319.426ZM202.214 303.339C200.996 303.339 199.815 303.763 198.868 304.539C197.921 305.316 197.264 306.399 197.008 307.608C196.752 308.817 196.911 310.078 197.46 311.182C198.009 312.286 198.913 313.165 200.023 313.673C201.133 314.182 202.381 314.289 203.559 313.976C204.737 313.664 205.774 312.95 206.497 311.956C207.22 310.961 207.586 309.744 207.533 308.509C207.479 307.274 207.011 306.094 206.205 305.168C205.705 304.593 205.091 304.133 204.403 303.818C203.715 303.503 202.968 303.34 202.214 303.339Z" fill="#25252D"/>
<path d="M271.432 73.448H265.371V95.3198H271.432V73.448Z" fill="white"/>
<path d="M271.354 102.317H265.293V111.996H271.354V102.317Z" fill="white"/>
<path d="M203.4 71.3206H197.339V93.1924H203.4V71.3206Z" fill="white"/>
<path d="M203.322 100.181H197.262V109.86H203.322V100.181Z" fill="white"/>
<path opacity="0.5" d="M379.098 297.704H331.074V303.858H379.098V297.704Z" fill="white"/>
<path opacity="0.5" d="M321.507 297.555H311.88V303.708H321.507V297.555Z" fill="white"/>
<path opacity="0.5" d="M336.728 81.351H321.923V282.425H336.728V81.351Z" fill="#21201F"/>
<path d="M156.631 0H145.844V10.9535H156.631V0Z" fill="white"/>
<path d="M178.215 0H167.427V10.9535H178.215V0Z" fill="white"/>
<path d="M199.79 0H189.002V10.9535H199.79V0Z" fill="white"/>
<path d="M221.373 0H210.586V10.9535H221.373V0Z" fill="white"/>
<path d="M145.844 304.789H69.1456V312.701H145.844V304.789Z" fill="#25252D"/>
<path d="M255.735 149.885C255.735 147.661 256.463 145.437 256.463 142.474C256.463 139.512 256.463 137.288 255.735 135.072L271.085 122.475C271.689 121.942 272.093 121.212 272.227 120.411C272.361 119.609 272.218 118.786 271.821 118.079L257.233 92.1111C256.652 91.5709 255.929 91.2129 255.151 91.0803C254.374 90.9477 253.576 91.0462 252.852 91.3639L234.611 98.7746C230.966 95.8121 226.594 93.588 222.213 91.3639L219.261 72.0854C219.988 69.8701 217.797 68.3845 216.343 68.3845H187.158C185.704 68.3845 183.513 69.8701 183.513 71.347L180.596 91.3463C176.267 92.832 172.57 95.7945 168.198 98.757L150.683 91.3463C148.502 90.6079 147.038 91.3463 145.584 92.832L130.987 118.756C130.26 119.495 130.987 121.719 132.45 123.152L147.766 135.011C147.766 137.226 147.038 139.406 147.038 142.413C147.038 145.419 147.038 147.599 147.766 149.823L132.45 162.412C131.835 162.949 131.425 163.689 131.292 164.502C131.159 165.315 131.312 166.15 131.723 166.86L146.311 192.785C146.892 193.323 147.614 193.679 148.39 193.81C149.166 193.941 149.962 193.841 150.683 193.523L168.925 186.183C172.57 189.145 176.951 191.369 181.323 193.585L184.24 212.845C184.24 214.331 185.704 215.808 187.894 215.808H217.07C218.533 215.808 220.715 214.331 220.715 212.845L223.641 193.585C228.014 191.369 232.394 189.145 236.039 186.183L254.272 193.585C255.055 193.919 255.93 193.953 256.736 193.681C257.541 193.41 258.223 192.851 258.653 192.108L273.241 166.148C273.977 164.662 273.977 162.438 272.514 161.7L255.735 149.885ZM201.755 168.399C196.705 168.399 191.769 166.878 187.57 164.03C183.372 161.181 180.099 157.132 178.167 152.395C176.234 147.658 175.729 142.445 176.714 137.417C177.699 132.388 180.131 127.768 183.701 124.143C187.272 120.517 191.821 118.048 196.774 117.048C201.727 116.048 206.86 116.561 211.525 118.523C216.191 120.485 220.178 123.808 222.983 128.071C225.789 132.335 227.286 137.347 227.286 142.474C227.205 149.324 224.489 155.871 219.719 160.715C214.948 165.559 208.501 168.316 201.755 168.399Z" fill="#EEBBC3"/>
<path d="M273.241 167.159L258.644 193.083C258.221 193.831 257.541 194.395 256.735 194.667C255.929 194.94 255.052 194.902 254.272 194.56L236.03 187.167C232.403 190.13 228.005 192.354 223.633 194.56L220.724 213.848C220.724 215.324 218.525 216.801 217.07 216.801H187.885C185.712 216.801 184.249 215.324 184.249 213.848L182.18 200.248C193.439 197.77 204.101 193.045 213.547 186.348C222.993 179.65 231.035 171.114 237.205 161.235C243.375 151.356 247.55 140.331 249.489 128.8C251.427 117.268 251.09 105.461 248.497 94.0627L252.826 92.3045C255.025 91.5573 256.48 92.3045 257.198 93.0605L271.778 119.029C272.189 119.729 272.344 120.554 272.214 121.358C272.084 122.163 271.678 122.894 271.068 123.424L255.735 136.013C256.471 138.246 256.471 140.479 256.471 143.432C256.471 146.386 255.735 148.628 255.735 150.834L272.522 162.693C273.977 163.449 273.977 165.682 273.241 167.159Z" fill="#EEBBC3"/>
<path d="M217.07 219.773H187.894C183.868 219.773 180.57 216.872 180.362 213.232L177.764 196.213C174.485 194.611 171.328 192.763 168.319 190.684L151.869 197.347C150.46 197.896 148.926 198.028 147.446 197.728C145.966 197.428 144.6 196.707 143.506 195.65L143.134 195.281L139.022 187.976L145.792 184.046L149.099 189.928L149.315 189.875L169.531 181.655L171.306 183.097C174.63 185.796 178.7 187.862 183.002 190.051L184.812 190.93L185.124 192.96L187.981 211.826H216.828H216.88L220.04 190.965L221.841 190.086C226.169 187.888 230.23 185.822 233.554 183.123L235.329 181.682L255.502 189.804L269.717 164.548L250.8 151.151L252.636 147.52C253.463 145.893 253.874 144.081 253.834 142.251C253.793 140.42 253.301 138.629 252.402 137.041L250.749 134.114L268.28 119.706L254.428 95.0385L254.203 95.0912L233.987 103.302L232.126 101.86C228.801 99.1614 224.732 97.0955 220.421 94.9066L218.62 94.0275L215.339 72.3931H187.357H187.305L184.102 94.3704L181.825 95.1352C178.873 96.1373 176.154 98.0362 173.011 100.243C172.146 100.849 171.28 101.465 170.354 102.08L168.622 103.258L149.35 95.1C149.259 95.0642 149.162 95.0463 149.064 95.0473C148.926 95.1319 148.796 95.229 148.675 95.3374L134.823 119.952C134.898 120.067 134.979 120.179 135.065 120.286L152.475 133.754L151.35 136.558C151.35 136.611 148.891 142.984 151.281 148.223L152.553 151.019L135.238 165.251L139.203 172.284L132.442 176.214L128.234 168.689C127.455 167.236 127.176 165.56 127.441 163.928C127.706 162.296 128.5 160.8 129.697 159.678L130 159.405L143.177 148.566C142.228 144.612 142.255 140.481 143.255 136.54L129.697 125.991C128.574 124.85 127.722 123.464 127.204 121.939C126.853 121.055 126.721 120.098 126.82 119.151C126.918 118.204 127.243 117.296 127.767 116.506L142.485 90.3969L142.848 90.0189C143.953 88.7388 145.41 87.8231 147.031 87.3892C148.652 86.9554 150.364 87.0231 151.947 87.5838L152.216 87.6893L167.8 94.2737L168.665 93.6847C171.327 91.6869 174.168 89.9475 177.15 88.4892L179.747 70.9602C179.998 67.2504 183.903 64.4197 187.271 64.4197H216.456C217.579 64.4431 218.682 64.7289 219.679 65.2548C220.675 65.7808 221.54 66.5328 222.204 67.4526C223.188 68.8259 223.596 70.5392 223.338 72.2173L225.719 88.7881C228.997 90.3936 232.154 92.2417 235.165 94.3176L251.614 87.6541C253.024 87.105 254.557 86.9729 256.038 87.2732C257.518 87.5735 258.884 88.2939 259.978 89.3507L260.341 89.7288L275.293 116.304C276.073 117.756 276.354 119.43 276.09 121.063C275.827 122.695 275.034 124.191 273.838 125.314L273.535 125.596L260.523 136.259C261.917 140.234 261.95 144.57 260.618 148.566L274.548 158.368C277.856 160.293 278.271 164.777 276.713 167.95L276.609 168.144L262.055 193.998C261.174 195.637 259.704 196.868 257.952 197.435C256.235 198.035 254.359 197.957 252.696 197.215L236.628 190.675C233.618 192.752 230.461 194.6 227.182 196.204L224.585 213.241C224.334 216.942 220.438 219.773 217.07 219.773ZM201.755 172.363C185.799 172.363 172.319 158.685 172.319 142.474C172.319 126.264 185.79 112.585 201.755 112.585C217.72 112.585 231.191 126.273 231.191 142.474C231.191 158.676 217.702 172.354 201.755 172.354V172.363ZM201.755 120.497C197.474 120.497 193.289 121.786 189.73 124.201C186.171 126.616 183.396 130.048 181.758 134.064C180.12 138.08 179.691 142.499 180.527 146.762C181.362 151.025 183.423 154.941 186.45 158.014C189.477 161.088 193.334 163.181 197.532 164.029C201.731 164.877 206.083 164.442 210.038 162.779C213.993 161.115 217.373 158.298 219.751 154.684C222.13 151.07 223.399 146.821 223.399 142.474C223.323 136.67 221.018 131.126 216.975 127.023C212.932 122.919 207.471 120.581 201.755 120.506V120.497Z" fill="#25252D"/>
<path opacity="0.5" d="M164.328 138.606L158.267 138.351C158.267 138.088 159.592 111.442 183.652 104.207L185.383 110.106C165.531 116.04 164.371 137.683 164.328 138.606Z" fill="white"/>
</g>
<defs>
<clipPath id="clip0">
<rect width="422" height="382" fill="white"/>
</clipPath>
</defs>
</svg>
