<svg width="466" height="361" viewBox="0 0 466 361" fill="none" xmlns="http://www.w3.org/2000/svg">
<g clip-path="url(#clip0)">
<path d="M304.687 27.6397H18.5108C9.82398 27.6397 2.7819 34.9276 2.7819 43.9176V117.364C2.7819 126.354 9.82398 133.642 18.5108 133.642H304.687C313.374 133.642 320.416 126.354 320.416 117.364V43.9176C320.416 34.9276 313.374 27.6397 304.687 27.6397Z" fill="white"/>
<path d="M320.416 93.9853V127.293C320.416 130.802 313.585 133.642 305.208 133.642H18.0079C9.60626 133.642 2.80053 130.802 2.80053 127.293V108.014C22.1621 113.322 44.2062 116.902 66.8154 119.125C94.1376 121.811 122.298 122.595 150.341 122.711C183.873 122.852 217.963 122.011 249.527 117.3C278.451 112.994 305.271 105.058 320.416 93.9853Z" fill="#E8F0F9"/>
<path d="M304.389 136.335H18.2128C13.385 136.33 8.75635 134.343 5.34204 130.811C1.92772 127.279 0.00657479 122.489 0 117.493L0 44.0398C0.00657479 39.0435 1.92772 34.2539 5.34204 30.7217C8.75635 27.1894 13.385 25.2028 18.2128 25.1977H304.389C309.218 25.2028 313.847 27.1903 317.262 30.7239C320.676 34.2576 322.597 39.0488 322.602 44.0462V117.499C322.593 122.494 320.671 127.282 317.257 130.813C313.843 134.344 309.215 136.33 304.389 136.335ZM18.2128 30.3388C14.702 30.3422 11.336 31.7866 8.85291 34.3551C6.36986 36.9236 4.97262 40.4065 4.96769 44.0398V117.493C4.97097 121.127 6.36749 124.612 8.85071 127.182C11.3339 129.752 14.701 131.197 18.2128 131.2H304.389C307.901 131.197 311.268 129.752 313.751 127.182C316.234 124.612 317.631 121.127 317.634 117.493V44.0398C317.631 40.4054 316.234 36.9208 313.751 34.3509C311.268 31.781 307.901 30.3358 304.389 30.3324L18.2128 30.3388Z" fill="#314E5D"/>
<path d="M448.129 192.154H121.013C112.326 192.154 105.284 199.442 105.284 208.432V281.879C105.284 290.869 112.326 298.157 121.013 298.157H448.129C456.816 298.157 463.858 290.869 463.858 281.879V208.432C463.858 199.442 456.816 192.154 448.129 192.154Z" fill="white"/>
<path d="M463.858 258.5V291.808C463.858 295.316 456.17 298.157 446.688 298.157H122.453C112.971 298.157 105.284 295.316 105.284 291.808V272.528C127.142 277.837 152.03 281.416 177.551 283.64C208.363 286.326 240.181 287.11 271.844 287.226C309.686 287.367 348.185 286.525 383.816 281.815C416.485 277.509 446.763 269.572 463.858 258.5Z" fill="#E8F0F9"/>
<path d="M234.922 192.418C201.142 194.513 154.197 192.488 125.068 200.194C111.239 203.844 107.83 210.926 105.601 216.78L105.644 200.386C105.644 198.285 105.837 195.997 109.506 194.391C114.046 192.411 122.013 192.257 129.029 192.263C163.48 192.276 201.154 190.863 234.922 192.418Z" fill="#4ED9FF"/>
<path d="M447.793 300.849H120.671C115.844 300.844 111.215 298.858 107.801 295.325C104.386 291.793 102.465 287.004 102.459 282.007V208.554C102.463 203.557 104.384 198.766 107.798 195.232C111.213 191.698 115.842 189.711 120.671 189.706H447.793C452.622 189.711 457.252 191.698 460.666 195.232C464.081 198.766 466.001 203.557 466.006 208.554V282.007C466 287.004 464.078 291.793 460.664 295.325C457.25 298.858 452.621 300.844 447.793 300.849ZM120.671 194.853C117.161 194.857 113.794 196.301 111.311 198.87C108.828 201.438 107.431 204.921 107.426 208.554V282.007C107.43 285.642 108.826 289.126 111.309 291.696C113.792 294.266 117.159 295.711 120.671 295.715H447.793C451.305 295.711 454.672 294.266 457.155 291.696C459.639 289.126 461.035 285.642 461.039 282.007V208.554C461.035 204.92 459.639 201.435 457.155 198.865C454.672 196.295 451.305 194.85 447.793 194.847L120.671 194.853Z" fill="#314E5D"/>
<path d="M402.662 2.17212H75.5896C66.9027 2.17212 59.8606 9.46 59.8606 18.4501V320.61C59.8606 329.6 66.9027 336.888 75.5896 336.888H402.662C411.349 336.888 418.391 329.6 418.391 320.61V18.4501C418.391 9.46 411.349 2.17212 402.662 2.17212Z" fill="#B8C1EC"/>
<path d="M418.391 211.671V316.819C418.391 327.891 410.703 336.863 401.221 336.863H76.9991C67.5171 336.863 59.8296 327.866 59.8296 316.819V256.013C81.6874 272.773 106.569 284.083 132.085 291.107C162.897 299.596 194.708 302.077 226.365 302.437C264.206 302.88 302.694 300.22 338.324 285.343C371.024 271.706 401.302 246.63 418.391 211.671Z" fill="#B8C1EC"/>
<path d="M189.486 3.01396C155.712 9.63953 108.799 3.24531 79.6444 27.5626C65.8218 39.0915 62.4128 61.4487 60.1835 79.9373L60.2332 28.186C60.2332 21.5604 60.4257 14.3179 64.0956 9.26037C68.6348 3.01396 76.6017 2.53199 83.6124 2.53199C118.051 2.57054 155.718 -1.81222 189.486 3.01396Z" fill="#B8C1EC"/>
<path d="M402.327 339.857H75.248C70.4192 339.852 65.7896 337.865 62.3751 334.331C58.9606 330.797 57.0402 326.006 57.0352 321.009V18.8485C57.0402 13.8511 58.9606 9.0599 62.3751 5.52623C65.7896 1.99256 70.4192 0.00510369 75.248 0L402.327 0C407.156 0.00510369 411.785 1.99256 415.2 5.52623C418.614 9.0599 420.535 13.8511 420.539 18.8485V321.015C420.533 326.012 418.612 330.801 415.197 334.333C411.783 337.866 407.154 339.852 402.327 339.857ZM75.248 5.14108C71.7362 5.14448 68.3692 6.58974 65.886 9.15964C63.4027 11.7295 62.0062 15.2141 62.0029 18.8485V321.015C62.0062 324.65 63.4027 328.134 65.886 330.704C68.3692 333.274 71.7362 334.719 75.248 334.723H402.327C405.838 334.719 409.206 333.274 411.689 330.704C414.172 328.134 415.569 324.65 415.572 321.015V18.8485C415.569 15.2141 414.172 11.7295 411.689 9.15964C409.206 6.58974 405.838 5.14448 402.327 5.14108H75.248Z" fill="#314E5D"/>
<path d="M377.525 23.7518H102.179C96.74 23.7518 92.3307 28.315 92.3307 33.944V301.762C92.3307 307.391 96.74 311.954 102.179 311.954H377.525C382.965 311.954 387.374 307.391 387.374 301.762V33.944C387.374 28.315 382.965 23.7518 377.525 23.7518Z" fill="white"/>
<path d="M386.902 31.9261V87.8867H91.8401V31.9261C91.8401 27.6333 96.0626 24.1502 101.272 24.1502H377.47C382.679 24.1502 386.902 27.6333 386.902 31.9261Z" fill="#DCEAEF"/>
<path d="M377.172 316.125H101.838C98.5678 316.121 95.433 314.776 93.121 312.383C90.8089 309.99 89.5086 306.746 89.5053 303.362V33.4555C89.5102 30.0728 90.8113 26.8302 93.1231 24.4388C95.435 22.0475 98.5689 20.7026 101.838 20.6992H377.172C380.441 20.7027 383.576 22.0484 385.888 24.4411C388.2 26.8339 389.501 30.0781 389.504 33.462V303.369C389.499 306.751 388.198 309.994 385.886 312.385C383.574 314.777 380.44 316.121 377.172 316.125ZM101.838 25.8403C99.8854 25.8437 98.014 26.6478 96.6336 28.0764C95.2532 29.505 94.4762 31.4416 94.473 33.462V303.369C94.4779 305.388 95.2556 307.323 96.6358 308.75C98.0161 310.177 99.8864 310.98 101.838 310.984H377.172C379.124 310.98 380.995 310.176 382.375 308.748C383.756 307.319 384.533 305.382 384.536 303.362V33.4555C384.531 31.4363 383.754 29.5013 382.373 28.0741C380.993 26.6469 379.123 25.8437 377.172 25.8403H101.838Z" fill="#314E5D"/>
<path d="M250.62 61.4294H125.13V72.6498H250.62V61.4294Z" fill="white"/>
<path d="M121.218 115.501L182.612 115.501V112.834L121.218 112.834V115.501Z" fill="#EEBBC3"/>
<path d="M121.218 121.374L254.842 121.374V118.707L121.218 118.707V121.374Z" fill="#EEBBC3"/>
<path d="M121.218 127.248L182.612 127.248V124.581L121.218 124.581V127.248Z" fill="#EEBBC3"/>
<path d="M121.218 133.122L254.842 133.122V130.455L121.218 130.455V133.122Z" fill="#EEBBC3"/>
<path d="M121.218 138.995H182.612V136.329H121.218V138.995Z" fill="#EEBBC3"/>
<path d="M121.218 144.863L254.842 144.863V142.196L121.218 142.196V144.863Z" fill="#EEBBC3"/>
<path d="M121.218 168.576H182.612V165.909H121.218V168.576Z" fill="#EEBBC3"/>
<path d="M121.218 174.45L254.842 174.45V171.783L121.218 171.783V174.45Z" fill="#EEBBC3"/>
<path d="M121.218 180.323H182.612V177.656H121.218V180.323Z" fill="#EEBBC3"/>
<path d="M121.218 186.197L254.842 186.197V183.53L121.218 183.53V186.197Z" fill="#EEBBC3"/>
<path d="M121.218 192.071H182.612V189.404H121.218V192.071Z" fill="#EEBBC3"/>
<path d="M121.218 197.938L254.842 197.938V195.271L121.218 195.271V197.938Z" fill="#EEBBC3"/>
<path d="M121.218 221.651H182.612V218.984H121.218V221.651Z" fill="#EEBBC3"/>
<path d="M121.218 227.525L254.842 227.525V224.858L121.218 224.858V227.525Z" fill="#EEBBC3"/>
<path d="M121.218 233.398H182.612V230.732H121.218V233.398Z" fill="#EEBBC3"/>
<path d="M121.218 239.272L254.842 239.272V236.605L121.218 236.605V239.272Z" fill="#EEBBC3"/>
<path d="M121.218 245.146H182.612V242.479H121.218V245.146Z" fill="#EEBBC3"/>
<path d="M121.218 251.013L254.842 251.013V248.346L121.218 248.346V251.013Z" fill="#EEBBC3"/>
<path d="M328.463 41.7198L374.551 41.7198V36.1096L328.463 36.1096V41.7198Z" fill="#EEBBC3"/>
<path d="M276.017 41.7198L322.105 41.7198V36.1096L276.017 36.1096V41.7198Z" fill="#EEBBC3"/>
<path d="M106.501 44.3225C109.389 44.3225 111.729 41.8999 111.729 38.9115C111.729 35.9231 109.389 33.5005 106.501 33.5005C103.613 33.5005 101.272 35.9231 101.272 38.9115C101.272 41.8999 103.613 44.3225 106.501 44.3225Z" fill="#EEBBC3"/>
<path d="M291.345 241.784L274.673 258.146L308.501 295.063L325.173 278.702L291.345 241.784Z" fill="#314E5D"/>
<g opacity="0.5">
<path opacity="0.5" d="M276.881 242.368C298.608 221.046 299.518 185.532 278.915 163.047C258.311 140.562 223.995 139.619 202.268 160.942C180.542 182.265 179.631 217.778 200.235 240.264C220.838 262.749 255.154 263.691 276.881 242.368Z" fill="#8BDDEB"/>
<path opacity="0.5" d="M211.002 234.08C205.519 228.099 201.378 220.941 198.873 213.116C196.368 205.29 195.561 196.989 196.51 188.803C197.459 180.618 200.14 172.75 204.362 165.759C208.584 158.769 214.244 152.827 220.938 148.359C213.775 151.075 207.247 155.325 201.78 160.831C196.313 166.337 192.031 172.975 189.212 180.312C186.394 187.648 185.103 195.517 185.424 203.405C185.746 211.292 187.672 219.021 191.077 226.086C194.482 233.15 199.289 239.392 205.185 244.402C211.08 249.413 217.931 253.079 225.289 255.162C232.647 257.245 240.347 257.697 247.886 256.489C255.424 255.282 262.632 252.441 269.037 248.153C259.093 251.931 248.297 252.611 237.984 250.11C227.67 247.609 218.29 242.036 211.002 234.08Z" fill="#62D6F8"/>
</g>
<path d="M298.744 141.752C292.836 135.289 285.997 129.811 278.47 125.513C278.339 125.429 278.209 125.359 278.066 125.288C260.665 115.481 240.46 112.398 221.064 116.59C201.668 120.782 184.345 131.977 172.191 148.172C160.037 164.368 153.845 184.508 154.721 204.994C155.597 225.48 163.485 244.976 176.974 259.997C177.166 260.222 177.365 260.441 177.595 260.64C183.763 267.388 190.945 273.058 198.863 277.432L199.086 277.554C216.584 287.132 236.802 289.965 256.131 285.547C275.46 281.129 292.644 269.747 304.616 253.433C316.589 237.118 322.571 216.932 321.495 196.477C320.42 176.021 312.356 156.626 298.744 141.752ZM278.321 163.049C285.7 171.101 290.606 181.237 292.419 192.174C294.231 203.112 292.87 214.36 288.505 224.497C284.141 234.633 276.97 243.203 267.9 249.121C258.829 255.04 248.266 258.043 237.547 257.749C226.828 257.455 216.434 253.878 207.679 247.47C198.924 241.063 192.201 232.112 188.362 221.751C184.522 211.389 183.738 200.082 186.107 189.26C188.477 178.437 193.895 168.584 201.676 160.948C206.842 155.877 212.922 151.91 219.57 149.271C226.218 146.633 233.303 145.376 240.42 145.572C247.537 145.767 254.548 147.412 261.051 150.412C267.554 153.412 273.422 157.708 278.321 163.056V163.049Z" fill="#E7E7E7"/>
<path d="M304.6 251.54C290.423 265.455 271.979 273.784 252.479 275.076C232.98 276.368 213.661 270.542 197.884 258.612C182.108 246.681 170.874 229.403 166.139 209.785C161.404 190.166 163.467 169.451 171.969 151.244C165.096 160.926 160.249 171.985 157.738 183.715C155.227 195.444 155.107 207.587 157.385 219.368C159.664 231.148 164.291 242.307 170.971 252.133C177.651 261.959 186.238 270.235 196.182 276.433C206.127 282.631 217.211 286.615 228.727 288.131C240.244 289.647 251.939 288.661 263.066 285.236C274.193 281.811 284.508 276.022 293.352 268.24C302.196 260.458 309.374 250.852 314.43 240.037C311.487 244.164 308.198 248.013 304.6 251.54Z" fill="#CED0D0"/>
<path d="M238.859 290.644C224.563 290.652 210.495 286.944 197.944 279.861L197.633 279.687C179.405 269.309 165.415 252.464 158.239 232.255C158.078 231.818 157.923 231.361 157.78 230.892C152.112 214.014 151.484 195.76 155.98 178.507C160.475 161.254 169.885 145.802 182.985 134.161C196.084 122.519 212.267 115.229 229.426 113.239C246.585 111.248 263.925 114.65 279.19 123C279.358 123.084 279.526 123.18 279.687 123.277C295.756 132.217 308.661 146.215 316.535 163.247C324.409 180.278 326.845 199.46 323.49 218.019C320.134 236.578 311.162 253.551 297.871 266.484C284.579 279.417 267.657 287.64 249.552 289.963C246.004 290.416 242.433 290.643 238.859 290.644ZM239.002 117.776C226.07 117.78 213.326 120.987 201.836 127.128C190.345 133.269 180.442 142.166 172.951 153.076C165.461 163.986 160.602 176.592 158.779 189.842C156.956 203.092 158.223 216.601 162.474 229.241V229.318C162.592 229.703 162.729 230.089 162.866 230.468C169.627 249.531 182.823 265.419 200.018 275.202L200.235 275.324C217.187 284.921 236.896 287.93 255.804 283.808C274.713 279.687 291.574 268.706 303.346 252.848C315.118 236.99 321.024 217.299 319.999 197.33C318.975 177.361 311.086 158.428 297.757 143.95C291.819 137.452 284.911 131.984 277.296 127.756L277.203 127.698L277.004 127.589L276.911 127.537C265.235 121.131 252.218 117.786 239.002 117.795V117.776ZM239.002 260.318C238.486 260.318 237.977 260.318 237.462 260.318C222.51 260.108 208.246 253.787 197.781 242.733C187.316 231.68 181.5 216.792 181.601 201.317C181.703 185.843 187.714 171.038 198.323 160.133C208.933 149.228 223.279 143.107 238.232 143.107C253.185 143.107 267.531 149.228 278.14 160.133C288.749 171.038 294.76 185.843 294.862 201.317C294.964 216.792 289.147 231.68 278.682 242.733C268.218 253.787 253.953 260.108 239.002 260.318ZM238.933 148.102C225.693 148.073 212.953 153.336 203.371 162.792C194.688 171.314 189.129 182.689 187.641 194.977C186.153 207.265 188.828 219.707 195.21 230.184C201.593 240.66 211.287 248.521 222.643 252.43C233.998 256.338 246.311 256.05 257.485 251.616C268.658 247.182 278.001 238.876 283.92 228.113C289.84 217.35 291.97 204.796 289.948 192.589C287.926 180.383 281.878 169.28 272.833 161.171C263.787 153.063 252.305 148.451 240.343 148.121C239.883 148.121 239.42 148.121 238.952 148.121L238.933 148.102Z" fill="#314E5D"/>
<path d="M304.67 272.103L304.666 272.107C297.588 279.053 297.292 290.621 304.003 297.945L354.213 352.74C360.925 360.065 372.102 360.372 379.18 353.426L379.184 353.422C386.261 346.476 386.558 334.908 379.847 327.584L329.637 272.788C322.925 265.464 311.747 265.157 304.67 272.103Z" fill="#426372"/>
<path d="M366.299 361H365.746C363.102 360.939 360.495 360.335 358.078 359.224C355.66 358.113 353.48 356.517 351.663 354.529L301.458 299.725C299.637 297.738 298.213 295.4 297.265 292.844C296.318 290.287 295.867 287.563 295.937 284.826C296.007 282.089 296.597 279.393 297.674 276.892C298.75 274.391 300.293 272.134 302.212 270.25C304.132 268.366 306.391 266.892 308.861 265.912C311.332 264.931 313.964 264.464 316.609 264.536C319.253 264.609 321.858 265.22 324.275 266.334C326.691 267.449 328.872 269.045 330.693 271.031L380.904 325.816C384.567 329.834 386.544 335.19 386.402 340.713C386.26 346.236 384.011 351.476 380.146 355.287C376.415 358.968 371.454 361.015 366.299 361ZM316.069 269.682C313.105 269.689 310.208 270.593 307.735 272.283C305.262 273.973 303.321 276.375 302.15 279.193C300.98 282.011 300.632 285.122 301.149 288.142C301.666 291.162 303.025 293.96 305.059 296.19L355.264 350.981C358.041 353.992 361.856 355.744 365.877 355.855C369.897 355.965 373.797 354.426 376.724 351.573C379.634 348.699 381.326 344.75 381.433 340.59C381.54 336.429 380.053 332.393 377.296 329.363L327.091 274.572C325.673 273.023 323.963 271.79 322.068 270.949C320.173 270.108 318.131 269.677 316.069 269.682Z" fill="#314E5D"/>
<g opacity="0.5">
<path opacity="0.5" d="M321.596 278.955C327.805 284.353 332.605 291.069 338.405 296.878C340.131 298.607 342.752 295.882 341.038 294.153C335.238 288.369 330.438 281.628 324.228 276.23C322.403 274.643 319.758 277.355 321.596 278.955Z" fill="white"/>
<path opacity="0.5" d="M310.878 277.74C311.873 277.102 312.991 276.699 314.153 276.559C315.315 276.419 316.493 276.546 317.603 276.931C319.907 277.625 320.894 273.904 318.596 273.21C317.006 272.691 315.327 272.529 313.672 272.735C312.016 272.941 310.422 273.51 308.996 274.405C306.941 275.69 308.81 279.013 310.859 277.734L310.878 277.74Z" fill="white"/>
</g>
<path d="M259.593 131.194C269.497 134.311 278.811 139.297 286.549 146.411C296.372 155.408 303.054 167.22 307.14 180.047C307.885 182.393 311.486 181.39 310.735 179.019C306.457 165.588 299.477 153.127 289.188 143.674C280.941 136.104 271.093 130.821 260.592 127.467C258.295 126.74 257.314 130.461 259.599 131.187L259.593 131.194Z" fill="white"/>
<path d="M223.409 127.614C229.886 126.728 236.598 127.055 243.069 127.736C245.453 127.987 245.435 124.131 243.069 123.881C236.598 123.199 229.886 122.872 223.409 123.759C221.068 124.08 221.037 127.942 223.409 127.614Z" fill="white"/>
</g>
<defs>
<clipPath id="clip0">
<rect width="466" height="361" fill="white"/>
</clipPath>
</defs>
</svg>
